# xmcd CD database file
# Copyright (C) 1996 Ti Kan
#
# Track frame offsets:
#	150
#	16057
#	41507
#	55435
#	72762
#	89987
#	114035
#	129527
#	145640
#	162825
#	180612
#	193622
#	209337
#	226462
#	243430
#	256700
#	277522
#	294935
#	307785
#	321072
# Disc length: 4489 seconds
#
# Revision: 1
# Processed by: cddbd v1.4PL0 Copyright (c) Steve Scherf et al.
# Submitted via: CDCOPY 4.900
#
DISCID=09118714
DTITLE=Vari - Platinum Spot
DYEAR=1900
DGENRE=
TTITLE0=Dandy Warhols - Bohemian like you
TTITLE1=Gorillaz- Clint Eastwood
TTITLE2=Bald 'N Spikey - Husan
TTITLE3=Shaggy - Boombastic
TTITLE4=Geri Halliwell - Lift me up
TTITLE5=R.Kelly - I believe I can fly
TTITLE6=Jennifer Paige - These days
TTITLE7=Feel good Productions - The feel good vibe
TTITLE8=Gabin - Doo uap doo uap doo uap
TTITLE9=Five for fighting - Something about you
TTITLE10=The specials - A message to you Rudy
TTITLE11=Roy Orbison - You got it
TTITLE12=Texas - Say what you want
TTITLE13=Michael learns to rock - Someday
TTITLE14=Supergrass - Alright
TTITLE15=Telepopmusik - Breathe
TTITLE16=Liquido - Why are you leaving
TTITLE17=Atomic Kitten - See ya
TTITLE18=The Troggs - Love is all around
TTITLE19=Dusty Springfield - The look of love
EXTD=
EXTT0=
EXTT1=
EXTT2=
EXTT3=
EXTT4=
EXTT5=
EXTT6=
EXTT7=
EXTT8=
EXTT9=
EXTT10=
EXTT11=
EXTT12=
EXTT13=
EXTT14=
EXTT15=
EXTT16=
EXTT17=
EXTT18=
EXTT19=
PLAYORDER=
